<?xml version="1.0" standalone="no"?>
<svg xmlns:xlink="http://www.w3.org/1999/xlink" id="wave" style="transform:rotate(0deg); transition: 0.3s" viewBox="0 0 1440 490" version="1.1" xmlns="http://www.w3.org/2000/svg"><defs><linearGradient id="sw-gradient-0" x1="0" x2="0" y1="1" y2="0"><stop stop-color="rgba(62, 151.031, 243, 1)" offset="0%"/><stop stop-color="rgba(11, 255, 246.735, 1)" offset="100%"/></linearGradient></defs><path style="transform:translate(0, 0px); opacity:1" fill="url(#sw-gradient-0)" d="M0,98L18.5,114.3C36.9,131,74,163,111,220.5C147.7,278,185,359,222,367.5C258.5,376,295,310,332,245C369.2,180,406,114,443,114.3C480,114,517,180,554,171.5C590.8,163,628,82,665,114.3C701.5,147,738,294,775,351.2C812.3,408,849,376,886,318.5C923.1,261,960,180,997,196C1033.8,212,1071,327,1108,334.8C1144.6,343,1182,245,1218,171.5C1255.4,98,1292,49,1329,57.2C1366.2,65,1403,131,1440,155.2C1476.9,180,1514,163,1551,187.8C1587.7,212,1625,278,1662,326.7C1698.5,376,1735,408,1772,400.2C1809.2,392,1846,343,1883,318.5C1920,294,1957,294,1994,245C2030.8,196,2068,98,2105,65.3C2141.5,33,2178,65,2215,98C2252.3,131,2289,163,2326,163.3C2363.1,163,2400,131,2437,138.8C2473.8,147,2511,196,2548,187.8C2584.6,180,2622,114,2640,81.7L2658.5,49L2658.5,490L2640,490C2621.5,490,2585,490,2548,490C2510.8,490,2474,490,2437,490C2400,490,2363,490,2326,490C2289.2,490,2252,490,2215,490C2178.5,490,2142,490,2105,490C2067.7,490,2031,490,1994,490C1956.9,490,1920,490,1883,490C1846.2,490,1809,490,1772,490C1735.4,490,1698,490,1662,490C1624.6,490,1588,490,1551,490C1513.8,490,1477,490,1440,490C1403.1,490,1366,490,1329,490C1292.3,490,1255,490,1218,490C1181.5,490,1145,490,1108,490C1070.8,490,1034,490,997,490C960,490,923,490,886,490C849.2,490,812,490,775,490C738.5,490,702,490,665,490C627.7,490,591,490,554,490C516.9,490,480,490,443,490C406.2,490,369,490,332,490C295.4,490,258,490,222,490C184.6,490,148,490,111,490C73.8,490,37,490,18,490L0,490Z"/></svg>