<?xml version="1.0" standalone="no"?>
<svg xmlns:xlink="http://www.w3.org/1999/xlink" id="wave" style="transform:rotate(0deg); transition: 0.3s" viewBox="0 0 1440 490" version="1.1" xmlns="http://www.w3.org/2000/svg"><defs><linearGradient id="sw-gradient-0" x1="0" x2="0" y1="1" y2="0"><stop stop-color="rgba(156.907, 62, 243, 1)" offset="0%"/><stop stop-color="rgba(81.083, 11, 255, 1)" offset="100%"/></linearGradient></defs><path style="transform:translate(0, 0px); opacity:1" fill="url(#sw-gradient-0)" d="M0,98L40,114.3C80,131,160,163,240,220.5C320,278,400,359,480,367.5C560,376,640,310,720,245C800,180,880,114,960,114.3C1040,114,1120,180,1200,171.5C1280,163,1360,82,1440,114.3C1520,147,1600,294,1680,351.2C1760,408,1840,376,1920,318.5C2000,261,2080,180,2160,196C2240,212,2320,327,2400,334.8C2480,343,2560,245,2640,171.5C2720,98,2800,49,2880,57.2C2960,65,3040,131,3120,155.2C3200,180,3280,163,3360,187.8C3440,212,3520,278,3600,326.7C3680,376,3760,408,3840,400.2C3920,392,4000,343,4080,318.5C4160,294,4240,294,4320,245C4400,196,4480,98,4560,65.3C4640,33,4720,65,4800,98C4880,131,4960,163,5040,163.3C5120,163,5200,131,5280,138.8C5360,147,5440,196,5520,187.8C5600,180,5680,114,5720,81.7L5760,49L5760,490L5720,490C5680,490,5600,490,5520,490C5440,490,5360,490,5280,490C5200,490,5120,490,5040,490C4960,490,4880,490,4800,490C4720,490,4640,490,4560,490C4480,490,4400,490,4320,490C4240,490,4160,490,4080,490C4000,490,3920,490,3840,490C3760,490,3680,490,3600,490C3520,490,3440,490,3360,490C3280,490,3200,490,3120,490C3040,490,2960,490,2880,490C2800,490,2720,490,2640,490C2560,490,2480,490,2400,490C2320,490,2240,490,2160,490C2080,490,2000,490,1920,490C1840,490,1760,490,1680,490C1600,490,1520,490,1440,490C1360,490,1280,490,1200,490C1120,490,1040,490,960,490C880,490,800,490,720,490C640,490,560,490,480,490C400,490,320,490,240,490C160,490,80,490,40,490L0,490Z"/></svg>