<?xml version="1.0" standalone="no"?>
<svg xmlns:xlink="http://www.w3.org/1999/xlink" id="wave" style="transform:rotate(0deg); transition: 0.3s" viewBox="0 0 1440 490" version="1.1" xmlns="http://www.w3.org/2000/svg"><defs><linearGradient id="sw-gradient-0" x1="0" x2="0" y1="1" y2="0"><stop stop-color="rgba(62, 151.031, 243, 1)" offset="0%"/><stop stop-color="rgba(11, 255, 246.735, 1)" offset="100%"/></linearGradient></defs><path style="transform:translate(0, 0px); opacity:1" fill="url(#sw-gradient-0)" d="M0,98L60,114.3C120,131,240,163,360,220.5C480,278,600,359,720,367.5C840,376,960,310,1080,245C1200,180,1320,114,1440,114.3C1560,114,1680,180,1800,171.5C1920,163,2040,82,2160,114.3C2280,147,2400,294,2520,351.2C2640,408,2760,376,2880,318.5C3000,261,3120,180,3240,196C3360,212,3480,327,3600,334.8C3720,343,3840,245,3960,171.5C4080,98,4200,49,4320,57.2C4440,65,4560,131,4680,155.2C4800,180,4920,163,5040,187.8C5160,212,5280,278,5400,326.7C5520,376,5640,408,5760,400.2C5880,392,6000,343,6120,318.5C6240,294,6360,294,6480,245C6600,196,6720,98,6840,65.3C6960,33,7080,65,7200,98C7320,131,7440,163,7560,163.3C7680,163,7800,131,7920,138.8C8040,147,8160,196,8280,187.8C8400,180,8520,114,8580,81.7L8640,49L8640,490L8580,490C8520,490,8400,490,8280,490C8160,490,8040,490,7920,490C7800,490,7680,490,7560,490C7440,490,7320,490,7200,490C7080,490,6960,490,6840,490C6720,490,6600,490,6480,490C6360,490,6240,490,6120,490C6000,490,5880,490,5760,490C5640,490,5520,490,5400,490C5280,490,5160,490,5040,490C4920,490,4800,490,4680,490C4560,490,4440,490,4320,490C4200,490,4080,490,3960,490C3840,490,3720,490,3600,490C3480,490,3360,490,3240,490C3120,490,3000,490,2880,490C2760,490,2640,490,2520,490C2400,490,2280,490,2160,490C2040,490,1920,490,1800,490C1680,490,1560,490,1440,490C1320,490,1200,490,1080,490C960,490,840,490,720,490C600,490,480,490,360,490C240,490,120,490,60,490L0,490Z"/></svg>